PathFileType	4	(X/Y/Z)	Patient4_TMGait_0pt3_01_right_25.trc.trc
DataRate	CameraRate	NumFrames	NumMarkers	Units	OrigDataRate	OrigDataStartFrame	OrigNumFrames
51.094890510949	51.094890510949	4	33	mm	51.094890510949	1	       141
Frame#	Time	Sacral			L.Shoulder			Chest			R.Shoulder			Neck			R.ASIS			L.ASIS			R.Thigh.Superior			R.Thigh.Lateral			R.Thigh.Inferior			R.Patella			L.Thigh.Superior			L.Thigh.Lateral			L.Thigh.Inferior			L.Patella			L.Shank.Superior			L.Shank.Lateral			L.Shank.Inferior			R.Shank.Superior			R.Shank.Lateral			R.Shank.Inferior			R.Heel			R.Midfoot.Superior			R.Midfoot.Lateral			R.Toe			L.Heel			L.Midfoot.Lateral			L.Midfoot.Superior			L.Toe			L.Elbow			L.Wrist			R.Elbow			R.Wrist			
		X1	Y1	Z1	X2	Y2	Z2	X3	Y3	Z3	X4	Y4	Z4	X5	Y5	Z5	X6	Y6	Z6	X7	Y7	Z7	X8	Y8	Z8	X9	Y9	Z9	X10	Y10	Z10	X11	Y11	Z11	X12	Y12	Z12	X13	Y13	Z13	X14	Y14	Z14	X15	Y15	Z15	X16	Y16	Z16	X17	Y17	Z17	X18	Y18	Z18	X19	Y19	Z19	X20	Y20	Z20	X21	Y21	Z21	X22	Y22	Z22	X23	Y23	Z23	X24	Y24	Z24	X25	Y25	Z25	X26	Y26	Z26	X27	Y27	Z27	X28	Y28	Z28	X29	Y29	Z29	X30	Y30	Z30	X31	Y31	Z31	X32	Y32	Z32	X33	Y33	Z33	

1	45.940000000000	729.199643965807	1010.563928393803	472.182193743819	924.181139121482	1431.426024877143	286.365148235877	1029.995731164222	1353.807185963108	441.975084150676	960.185473736042	1433.892288296550	617.887681711777	921.023932904564	1491.504741707123	444.808688945521	958.597787637144	938.352211534678	585.121384103754	939.944558208620	953.292001677161	312.110243062111	980.163306004169	729.787382572887	570.886831461594	892.016398676518	629.936683099125	641.661082838195	965.796573056420	562.558417540429	568.365703894607	950.830060455529	458.347276724085	593.000618999510	997.655654338904	751.384107974004	351.355849804936	919.974878787696	625.638344673003	296.334931026816	1011.691232262392	555.849101680897	361.851721466505	1016.823792265725	481.478481573961	370.133157187076	979.125807527349	409.028800249411	365.194538769702	877.785386354342	303.952926415961	318.067127306556	915.852426109148	188.879373934131	388.681052442924	875.133844976563	393.983416483392	602.479039310819	757.841224895515	351.822731471954	667.285821514857	747.574844048455	240.220874239401	619.364127826601	545.112156519720	162.633889650427	598.955415408482	718.172522118094	117.576466398163	632.836969924718	611.249309682916	108.310383001437	670.023095976424	794.281453163295	33.229522849902	655.612768077259	774.039897785799	40.680871733515	431.637732814684	846.057725344757	37.265837543064	350.046743132046	931.501624648561	96.137464151951	374.699740376661	1057.697235026602	39.791711634842	341.230631973340	861.684000335603	1095.538520555933	145.416916035877	923.935591414340	840.514807144064	142.807443997967	1036.722015126621	1097.567210733972	742.921729154551	1220.713893990986	916.020977251591	787.411711899087	
2	45.959571428571	727.463530863130	1007.789109114794	467.772939730944	926.262507422997	1429.411062574286	284.847210487147	1029.301875652584	1351.074307140383	441.826123741001	957.007367028372	1430.424335632300	617.089993951986	920.832797450453	1489.093111964130	443.649869942084	956.018533320908	936.505884332417	582.664261696193	939.734849387458	951.087770255053	309.556746212023	985.154338781699	731.227365833717	567.406530910064	901.888299045909	628.770879557493	638.412533086437	977.769545539605	563.717281439232	564.670681947321	965.247450705523	457.861301737982	589.844683130817	997.870362437465	749.387787216761	349.047622092086	920.621270674417	623.338165144570	294.675833235067	1012.199639584766	553.926506696022	360.855961321753	1017.256906327043	479.231958632777	369.552745040279	978.418743441561	406.653466845217	364.713060783747	875.785478043429	302.885238028272	317.456826576474	911.582124119980	187.625941883796	388.561245765315	887.570735414508	393.888040942701	599.279013043862	768.557803496690	356.269813996429	663.638469889786	754.448164189529	245.375730403697	616.410712202324	550.819063871890	177.185497172578	594.708143595425	720.950242232058	124.310021827813	631.407960445194	613.221850160773	120.229483985964	666.787794064578	791.106053583454	32.213327554912	655.199499191194	768.024682681462	40.611760638836	431.488772805658	840.036514976321	37.129164615783	349.908142304824	925.497715088560	95.958707838495	374.733557849674	1051.708270914168	39.716675622735	341.173917755712	875.490406572266	1093.511629937708	140.514760263259	946.388451287020	841.141774770017	136.590682422284	1016.071584796998	1090.200652559365	740.057664489036	1184.473021553729	896.839021661107	783.636019306547	
3	45.979142857143	725.686257709004	1005.014183407974	463.410419011071	928.314185755177	1427.398223813806	283.395253841631	1028.525600243452	1348.389360998357	441.776296879323	953.638114995812	1426.977898960794	616.364167608633	920.574262546047	1486.704854469446	442.549726834953	953.421976992684	934.705911799041	580.294008145501	939.522517003566	948.896478412308	307.069437085827	990.143262784640	732.894341112828	563.947301905227	911.896675743005	627.822759322768	635.167138838304	989.899689580849	565.210342924769	560.987958174762	979.953368344149	457.710166376277	586.637585199745	998.045312763643	747.349851530573	346.749361118922	921.134765378909	621.034086237488	293.046941453236	1012.555730391092	551.952357813621	359.888134119999	1017.517195515310	476.963139026944	369.029646352835	977.544751599310	404.262078873257	364.276668568656	873.633389821614	301.802685281755	316.864212996833	907.151355942086	186.362153931079	388.459018086220	900.358396145212	394.026755967302	596.015492416097	779.604527231650	360.745917615472	659.851233472222	761.836182536519	250.479144365605	613.278562904413	556.973996921897	191.167949827131	590.280957437686	724.432938644118	130.921152810149	629.654188442955	615.883307705185	131.714275611963	663.319146780202	788.993986126633	31.434021906457	654.411281149916	761.844144759726	40.534141491459	431.336784559728	833.855449171379	36.991634899427	349.763795277434	919.331780265613	95.775796150916	374.770592296550	1045.559319061162	39.643239495001	341.116288494884	889.525196922236	1091.643313221049	135.656828498229	969.817900933902	842.333955644759	130.517612625872	994.603185278786	1083.065038889003	737.005531052238	1146.701547936588	877.959423665779	779.344809416732	
4	45.998714285714	723.917355054317	1002.388955718402	459.253894477341	930.282164094680	1425.507596362046	282.103219790683	1027.661970869722	1345.913838025107	441.895288315817	950.092968096287	1423.733695498386	615.771190695321	920.226642343853	1484.478208688509	441.579337536592	950.873143764002	933.082653776364	578.144961519752	939.330351470957	946.843681858043	304.780701674535	994.935379963471	734.870293160233	560.646947086992	921.728047670412	627.256898774705	632.057070478290	1001.801105935794	567.163953133363	557.454774727756	994.543062593248	458.098528474935	583.484538436716	998.122535471449	745.337827798258	344.572002081998	921.388091198501	618.838508518622	291.525462746087	1012.598908369990	549.993351961340	359.010140575731	1017.424954027200	474.764138991336	368.615325332432	976.377307677991	401.959942985327	363.918827369212	871.264150225940	300.752718262811	316.318017074170	902.591337516587	185.143734118411	388.382994464922	913.229840956131	394.523058765351	592.789964381758	790.800764050396	365.049993450381	656.014260649336	769.847576718073	255.272894357518	610.020970726299	563.779108179672	203.641977372501	585.748202942254	729.026346815064	137.044123801237	627.526768309934	619.676877128867	142.031449225251	659.655922273074	788.764303302744	30.985329574956	653.192538879469	755.604880771633	40.450217675979	431.185168474608	827.624013304629	36.859080743063	349.616314643082	913.112491859856	95.596173555297	374.807755828621	1039.358319691934	39.574885863396	341.059129701372	903.458239041127	1090.125296905403	131.044486875372	993.948310342222	844.459836452898	124.904363679422	972.635732953398	1076.596566131882	733.766306178058	1107.899640173506	860.280922426323	774.450172807277	
